<svg xmlns="http://www.w3.org/2000/svg" width="512" height="512" viewBox="0 0 512 512">
  <defs>
    <linearGradient id="sea" x2=".7" y2="1"><stop stop-color="#126573"/><stop offset="1" stop-color="#031f2b"/></linearGradient>
    <linearGradient id="fish" x2=".2" y2="1"><stop stop-color="#fff0c5"/><stop offset="1" stop-color="#dca96a"/></linearGradient>
  </defs>
  <rect width="512" height="512" fill="url(#sea)"/>
  <circle cx="256" cy="256" r="185" fill="none" stroke="#8cd6c5" stroke-opacity=".12" stroke-width="2"/>
  <path d="M118 329Q258 421 396 317M133 352Q257 433 378 345" fill="none" stroke="#8adcc9" stroke-opacity=".35" stroke-width="5" stroke-linecap="round"/>
  <path d="M156 259C209 171 297 175 365 255C305 335 211 342 156 259L121 215L126 298Z" fill="url(#fish)"/>
  <path d="M210 211L238 161L275 203M208 309L235 339L268 316" fill="#e6bf80"/>
  <path d="M275 214Q243 259 280 307" fill="none" stroke="#835d38" stroke-opacity=".5" stroke-width="5"/>
  <circle cx="320" cy="244" r="10" fill="#06323c"/>
  <circle cx="323" cy="241" r="3" fill="#fff4d7"/>
  <circle cx="362" cy="178" r="9" fill="none" stroke="#a3e1d4" stroke-width="3"/>
  <circle cx="345" cy="147" r="5" fill="#a3e1d4" fill-opacity=".65"/>
</svg>
